<?xml version="1.0" encoding="utf-8"?>
<svg version="1.1" id="Layer_1" xmlns="http://www.w3.org/2000/svg" xmlns:xlink="http://www.w3.org/1999/xlink" x="0px"
     y="0px"
     width="333.623px" height="223.005px" viewBox="0 0 333.623 223.005" enable-background="new 0 0 333.623 223.005"
     xml:space="preserve">
<path fill="#020202" d="M110.552,47.618c-6.939-10.083-13.863-19.314-19.446-26.492c1.243-2.09,1.97-4.523,1.97-7.131
	C93.076,6.266,86.81,0,79.082,0c-7.729,0-13.993,6.266-13.993,13.995c0,2.608,0.726,5.041,1.968,7.131
	c-5.582,7.178-12.507,16.409-19.445,26.492C25.556,78.25,0,119.095,0,143.925c0,43.672,35.406,79.081,79.082,79.081
	s79.081-35.408,79.081-79.081C158.162,119.095,132.608,78.25,110.552,47.618z M79.082,6.793c2.292,0,4.152,1.859,4.152,4.153
	c0,2.293-1.86,4.152-4.152,4.152c-2.293,0-4.153-1.859-4.153-4.152C74.929,8.652,76.788,6.793,79.082,6.793z M63.359,46.312
	c6.849-8.968,12.334-15.657,14.599-18.379c0.372,0.029,0.745,0.056,1.124,0.056c0.379,0,0.751-0.027,1.124-0.056
	c2.266,2.722,7.752,9.413,14.604,18.385c9.635,13.619,20.131,30.912,20.131,41.629c0,19.804-16.055,35.859-35.858,35.859
	c-19.804,0-35.859-16.055-35.859-35.859C43.223,77.229,53.723,59.931,63.359,46.312z M32.92,90.675
	c0.936-1.575,1.89-3.151,2.86-4.722c-0.329,1.728-0.504,3.369-0.504,4.898c0,24.193,19.611,43.806,43.805,43.806
	c24.193,0,43.806-19.613,43.806-43.806c0-1.529-0.176-3.17-0.504-4.898c0.97,1.574,1.927,3.15,2.865,4.729
	c3.457,7.783,5.633,15.008,5.633,20.87c0,28.607-23.19,51.799-51.799,51.799c-28.608,0-51.799-23.192-51.799-51.799
	C27.283,105.689,29.46,98.462,32.92,90.675z M79.082,203.414c-35.752,0-64.735-28.984-64.735-64.736
	c0-3.955,0.794-8.408,2.203-13.197c4.681,30.327,30.894,53.546,62.532,53.546s57.851-23.219,62.532-53.546
	c1.409,4.789,2.203,9.242,2.203,13.197C143.817,174.429,114.834,203.414,79.082,203.414z"/>
    <path fill="#020202" d="M286.012,47.618c-6.938-10.083-13.863-19.314-19.446-26.492c1.244-2.09,1.971-4.523,1.971-7.131
	C268.537,6.266,262.271,0,254.542,0c-7.729,0-13.994,6.266-13.994,13.995c0,2.608,0.727,5.041,1.969,7.131
	c-5.582,7.178-12.507,16.409-19.445,26.492c-22.056,30.632-47.611,71.477-47.611,96.307c0,43.672,35.406,79.081,79.082,79.081
	s79.08-35.408,79.08-79.081C333.623,119.095,308.069,78.25,286.012,47.618z M254.542,6.793c2.292,0,4.152,1.859,4.152,4.153
	c0,2.293-1.86,4.152-4.152,4.152c-2.294,0-4.153-1.859-4.153-4.152C250.389,8.652,252.249,6.793,254.542,6.793z M238.82,46.312
	c6.848-8.968,12.334-15.657,14.598-18.379c0.373,0.029,0.745,0.056,1.125,0.056c0.379,0,0.751-0.027,1.123-0.056
	c2.266,2.722,7.752,9.413,14.604,18.385c9.635,13.619,20.131,30.912,20.131,41.629c0,19.804-16.055,35.859-35.857,35.859
	c-19.805,0-35.859-16.055-35.859-35.859C218.683,77.229,229.183,59.931,238.82,46.312z M208.38,90.675
	c0.936-1.575,1.891-3.151,2.861-4.722c-0.329,1.728-0.504,3.369-0.504,4.898c0,24.193,19.61,43.806,43.805,43.806
	c24.193,0,43.805-19.613,43.805-43.806c0-1.529-0.176-3.17-0.504-4.898c0.97,1.574,1.927,3.15,2.865,4.729
	c3.457,7.783,5.633,15.008,5.633,20.87c0,28.607-23.19,51.799-51.799,51.799s-51.799-23.192-51.799-51.799
	C202.744,105.689,204.92,98.462,208.38,90.675z M254.542,203.414c-35.753,0-64.736-28.984-64.736-64.736
	c0-3.955,0.795-8.408,2.203-13.197c4.682,30.327,30.895,53.546,62.533,53.546c31.638,0,57.85-23.219,62.531-53.546
	c1.41,4.789,2.203,9.242,2.203,13.197C319.277,174.429,290.294,203.414,254.542,203.414z"/>
</svg>
