<svg id="OutLine" xmlns="http://www.w3.org/2000/svg" viewBox="0 0 512 512" width="512" height="512">    <path d="M233.415,33.906a8,8,0,0,0-2.83-15.748c-26.171,4.7-50.016,16.82-67.141,34.118C145.747,70.152,136,92.816,136,116.093c0,21.425,7.849,68.928,19.087,115.518,7.831,32.465,23.908,91.505,45.9,133.687A23.986,23.986,0,1,0,233.1,400.821a23.971,23.971,0,0,0,2.965,20.524,40,40,0,1,0,39.874,0,23.971,23.971,0,0,0,2.965-20.524A23.986,23.986,0,1,0,311.017,365.3c21.988-42.182,38.065-101.222,45.9-133.687C368.151,185.021,376,137.518,376,116.093c0-23.277-9.747-45.941-27.444-63.817-17.125-17.3-40.97-29.415-67.141-34.118a8,8,0,0,0-2.83,15.748c22.96,4.126,43.771,14.648,58.6,29.627C352.111,78.608,360,96.784,360,116.093c0,37.9-27,174.147-64.276,243.914A24,24,0,0,0,273.1,391.179a23.95,23.95,0,0,0-34.2,0,24,24,0,0,0-22.626-31.172C179,290.24,152,154,152,116.093c0-19.309,7.889-37.485,22.814-52.56C189.644,48.554,210.455,38.032,233.415,33.906ZM296,376a8,8,0,1,1-8,8A8.009,8.009,0,0,1,296,376ZM256,480a24,24,0,1,1,24-24A24.028,24.028,0,0,1,256,480Zm0-80a8,8,0,1,1-8,8A8.009,8.009,0,0,1,256,400Zm-32-16a8,8,0,1,1-8-8A8.009,8.009,0,0,1,224,384Z"/></svg>